<svg xmlns="http://www.w3.org/2000/svg" xmlns:xlink="http://www.w3.org/1999/xlink" width="500" zoomAndPan="magnify" viewBox="0 0 375 374.999991" height="500" preserveAspectRatio="xMidYMid meet" version="1.0"><defs><g/><clipPath id="820f13d2db"><path d="M 116 186 L 127.5 186 L 127.5 198 L 116 198 Z M 116 186 " clip-rule="nonzero"/></clipPath><clipPath id="5f80ae09fa"><path d="M 37.5 186 L 49 186 L 49 198 L 37.5 198 Z M 37.5 186 " clip-rule="nonzero"/></clipPath><clipPath id="0d8bdabb97"><path d="M 41 155.347656 L 124 155.347656 L 124 179 L 41 179 Z M 41 155.347656 " clip-rule="nonzero"/></clipPath><clipPath id="4f12162a7c"><path d="M 41 206 L 124 206 L 124 219.847656 L 41 219.847656 Z M 41 206 " clip-rule="nonzero"/></clipPath></defs><path fill="#ffffff" d="M 100.78125 190.554688 C 100.78125 191.035156 100.78125 191.515625 100.722656 191.996094 L 90.042969 185.816406 L 83.988281 182.339844 L 94.125 176.519531 C 98.203125 179.878906 100.78125 184.917969 100.78125 190.554688 Z M 100.78125 190.554688 " fill-opacity="1" fill-rule="nonzero"/><path fill="#ffffff" d="M 92.863281 175.5625 L 82.1875 181.738281 L 76.128906 185.21875 L 76.128906 173.523438 C 78.109375 172.800781 80.265625 172.382812 82.546875 172.382812 C 86.386719 172.382812 89.925781 173.582031 92.863281 175.5625 Z M 92.863281 175.5625 " fill-opacity="1" fill-rule="nonzero"/><path fill="#ffffff" d="M 74.6875 174.121094 L 74.6875 193.4375 L 64.550781 187.617188 C 65.570312 181.617188 69.410156 176.640625 74.6875 174.121094 Z M 74.6875 174.121094 " fill-opacity="1" fill-rule="nonzero"/><path fill="#ffffff" d="M 81.105469 198.773438 L 70.96875 204.59375 C 66.890625 201.234375 64.3125 196.195312 64.3125 190.554688 C 64.3125 190.078125 64.3125 189.597656 64.371094 189.117188 L 75.050781 195.296875 Z M 81.105469 198.773438 " fill-opacity="1" fill-rule="nonzero"/><path fill="#ffffff" d="M 88.964844 195.953125 L 88.964844 207.652344 C 86.984375 208.371094 84.828125 208.789062 82.546875 208.789062 C 78.707031 208.789062 75.167969 207.589844 72.230469 205.613281 L 82.546875 199.671875 Z M 88.964844 195.953125 " fill-opacity="1" fill-rule="nonzero"/><path fill="#ffffff" d="M 100.542969 193.554688 C 99.582031 199.492188 95.683594 204.472656 90.40625 206.992188 L 90.40625 187.675781 Z M 100.542969 193.554688 " fill-opacity="1" fill-rule="nonzero"/><path fill="#ffffff" d="M 71.148438 206.871094 L 71.269531 206.929688 C 74.570312 209.210938 78.46875 210.410156 82.546875 210.410156 C 84.945312 210.410156 87.285156 209.992188 89.503906 209.152344 C 90.042969 208.972656 90.585938 208.730469 91.0625 208.492188 C 96.941406 205.671875 101.082031 200.214844 102.101562 193.796875 C 102.222656 193.253906 102.28125 192.65625 102.28125 192.117188 C 102.339844 191.574219 102.339844 191.097656 102.339844 190.554688 C 102.339844 184.617188 99.703125 178.980469 95.082031 175.199219 C 94.664062 174.839844 94.183594 174.480469 93.703125 174.179688 C 90.40625 171.902344 86.503906 170.703125 82.425781 170.703125 C 80.027344 170.703125 77.6875 171.121094 75.46875 171.960938 C 74.929688 172.140625 74.390625 172.382812 73.910156 172.621094 C 68.152344 175.441406 64.011719 180.898438 62.933594 187.316406 C 62.8125 187.855469 62.753906 188.457031 62.753906 188.996094 C 62.691406 189.535156 62.691406 190.015625 62.691406 190.554688 C 62.691406 196.496094 65.332031 202.132812 69.949219 205.910156 C 70.308594 206.273438 70.730469 206.570312 71.148438 206.871094 Z M 82.546875 213.410156 C 77.988281 213.410156 73.667969 212.089844 69.890625 209.570312 L 69.589844 209.390625 C 69.050781 209.03125 68.511719 208.609375 68.03125 208.191406 C 62.753906 203.8125 59.695312 197.394531 59.695312 190.554688 C 59.695312 189.957031 59.695312 189.355469 59.753906 188.757812 C 59.8125 188.097656 59.875 187.4375 59.992188 186.777344 C 61.191406 179.460938 65.933594 173.101562 72.710938 169.921875 C 73.308594 169.621094 73.910156 169.382812 74.507812 169.144531 C 77.089844 168.183594 79.789062 167.703125 82.546875 167.703125 C 87.226562 167.703125 91.664062 169.082031 95.503906 171.722656 C 96.042969 172.082031 96.582031 172.5 97.0625 172.921875 C 102.339844 177.300781 105.398438 183.71875 105.398438 190.554688 C 105.398438 191.15625 105.398438 191.757812 105.339844 192.355469 C 105.28125 193.015625 105.21875 193.675781 105.101562 194.335938 C 103.902344 201.652344 99.160156 207.953125 92.382812 211.191406 C 91.785156 211.488281 91.183594 211.730469 90.585938 211.96875 C 88.003906 212.929688 85.304688 213.410156 82.546875 213.410156 Z M 82.546875 213.410156 " fill-opacity="1" fill-rule="nonzero"/><g clip-path="url(#820f13d2db)"><path fill="#ffffff" d="M 122.015625 186.835938 L 123.214844 191.15625 L 127.535156 192.355469 L 123.214844 193.554688 L 122.015625 197.875 L 120.816406 193.554688 L 116.496094 192.355469 L 120.816406 191.15625 Z M 122.015625 186.835938 " fill-opacity="1" fill-rule="nonzero"/></g><g clip-path="url(#5f80ae09fa)"><path fill="#ffffff" d="M 43.078125 186.835938 L 44.277344 191.15625 L 48.597656 192.355469 L 44.277344 193.554688 L 43.078125 197.875 L 41.878906 193.554688 L 37.558594 192.355469 L 41.878906 191.15625 Z M 43.078125 186.835938 " fill-opacity="1" fill-rule="nonzero"/></g><g clip-path="url(#0d8bdabb97)"><path fill="#ffffff" d="M 44.757812 176.699219 L 44.757812 175.199219 C 44.757812 171.480469 47.757812 168.484375 51.476562 168.484375 L 62.871094 168.484375 C 65.210938 168.484375 67.371094 167.164062 68.511719 165.0625 L 70.789062 160.683594 C 71.449219 159.484375 72.648438 158.707031 74.03125 158.707031 L 91.125 158.707031 C 92.503906 158.707031 93.761719 159.484375 94.363281 160.683594 L 96.644531 165.0625 C 97.722656 167.164062 99.882812 168.484375 102.28125 168.484375 L 113.675781 168.484375 C 117.394531 168.484375 120.394531 171.480469 120.394531 175.199219 L 120.394531 176.699219 C 120.394531 177.660156 121.175781 178.441406 122.136719 178.441406 C 123.09375 178.441406 123.875 177.660156 123.875 176.699219 L 123.875 175.199219 C 123.875 169.621094 119.316406 165.0625 113.738281 165.0625 L 102.339844 165.0625 C 101.261719 165.0625 100.242188 164.464844 99.761719 163.503906 L 97.480469 159.125 C 96.222656 156.785156 93.824219 155.347656 91.183594 155.347656 L 74.03125 155.347656 C 71.390625 155.347656 68.992188 156.785156 67.730469 159.125 L 65.453125 163.503906 C 64.972656 164.464844 63.953125 165.0625 62.871094 165.0625 L 51.476562 165.0625 C 45.898438 165.0625 41.339844 169.621094 41.339844 175.199219 L 41.339844 176.699219 C 41.339844 177.660156 42.117188 178.441406 43.078125 178.441406 C 43.976562 178.378906 44.757812 177.660156 44.757812 176.699219 Z M 44.757812 176.699219 " fill-opacity="1" fill-rule="nonzero"/></g><g clip-path="url(#4f12162a7c)"><path fill="#ffffff" d="M 120.335938 208.011719 L 120.335938 209.511719 C 120.335938 213.230469 117.335938 216.230469 113.617188 216.230469 L 51.417969 216.230469 C 47.699219 216.230469 44.699219 213.230469 44.699219 209.511719 L 44.699219 208.011719 C 44.699219 207.050781 43.917969 206.273438 42.957031 206.273438 C 42 206.273438 41.21875 207.050781 41.21875 208.011719 L 41.21875 209.511719 C 41.21875 215.089844 45.777344 219.648438 51.355469 219.648438 L 113.558594 219.648438 C 119.136719 219.648438 123.695312 215.089844 123.695312 209.511719 L 123.695312 208.011719 C 123.695312 207.050781 122.914062 206.273438 121.957031 206.273438 C 121.117188 206.332031 120.335938 207.113281 120.335938 208.011719 Z M 120.335938 208.011719 " fill-opacity="1" fill-rule="nonzero"/></g><g fill="#ffffff" fill-opacity="1"><g transform="translate(139.002126, 202.415682)"><g><path d="M 2.828125 0 L 2.828125 -20.953125 L 6.171875 -20.953125 L 6.171875 0 Z M 2.828125 0 "/></g></g></g><g fill="#ffffff" fill-opacity="1"><g transform="translate(148.003274, 202.415682)"><g><path d="M 2.828125 0 L 2.828125 -20.953125 L 7.515625 -20.953125 L 13.234375 -5.4375 L 18.96875 -20.953125 L 23.65625 -20.953125 L 23.65625 0 L 20.453125 0 L 20.453125 -16.6875 L 14.90625 -1.828125 L 11.59375 -1.828125 L 6.0625 -16.6875 L 6.0625 0 Z M 2.828125 0 "/></g></g></g><g fill="#ffffff" fill-opacity="1"><g transform="translate(174.502522, 202.415682)"><g><path d="M 0.421875 0 L 8.640625 -20.953125 L 11.15625 -20.953125 L 19.34375 0 L 15.75 0 L 14.140625 -4.546875 L 5.671875 -4.546875 L 4.03125 0 Z M 6.796875 -7.453125 L 13.015625 -7.453125 L 9.90625 -16.078125 Z M 6.796875 -7.453125 "/></g></g></g><g fill="#ffffff" fill-opacity="1"><g transform="translate(194.254614, 202.415682)"><g><path d="M 11.328125 0.296875 C 9.972656 0.296875 8.757812 0.113281 7.6875 -0.25 C 6.625 -0.625 5.695312 -1.144531 4.90625 -1.8125 C 4.125 -2.488281 3.472656 -3.28125 2.953125 -4.1875 C 2.441406 -5.09375 2.054688 -6.078125 1.796875 -7.140625 C 1.535156 -8.210938 1.40625 -9.328125 1.40625 -10.484375 C 1.40625 -11.640625 1.53125 -12.75 1.78125 -13.8125 C 2.039062 -14.882812 2.425781 -15.875 2.9375 -16.78125 C 3.457031 -17.6875 4.109375 -18.476562 4.890625 -19.15625 C 5.679688 -19.832031 6.609375 -20.359375 7.671875 -20.734375 C 8.742188 -21.109375 9.953125 -21.296875 11.296875 -21.296875 C 13.335938 -21.296875 15.128906 -20.789062 16.671875 -19.78125 C 18.210938 -18.78125 19.40625 -17.320312 20.25 -15.40625 L 17.28125 -14.171875 C 16.75 -15.578125 15.957031 -16.625 14.90625 -17.3125 C 13.863281 -18 12.648438 -18.34375 11.265625 -18.34375 C 10.117188 -18.34375 9.128906 -18.132812 8.296875 -17.71875 C 7.472656 -17.300781 6.789062 -16.734375 6.25 -16.015625 C 5.71875 -15.296875 5.328125 -14.472656 5.078125 -13.546875 C 4.828125 -12.617188 4.703125 -11.648438 4.703125 -10.640625 C 4.703125 -9.554688 4.828125 -8.535156 5.078125 -7.578125 C 5.335938 -6.617188 5.734375 -5.769531 6.265625 -5.03125 C 6.804688 -4.300781 7.492188 -3.726562 8.328125 -3.3125 C 9.160156 -2.90625 10.160156 -2.703125 11.328125 -2.703125 C 12.390625 -2.703125 13.363281 -2.929688 14.25 -3.390625 C 15.132812 -3.847656 15.859375 -4.503906 16.421875 -5.359375 C 16.992188 -6.222656 17.328125 -7.25 17.421875 -8.4375 L 12.65625 -8.4375 L 12.65625 -11.109375 L 20.625 -11.109375 L 20.625 0 L 17.96875 0 L 17.734375 -3.21875 C 17.390625 -2.539062 16.90625 -1.9375 16.28125 -1.40625 C 15.65625 -0.875 14.925781 -0.457031 14.09375 -0.15625 C 13.257812 0.144531 12.335938 0.296875 11.328125 0.296875 Z M 11.328125 0.296875 "/></g></g></g><g fill="#ffffff" fill-opacity="1"><g transform="translate(216.883512, 202.415682)"><g><path d="M 2.828125 0 L 2.828125 -20.953125 L 16.671875 -20.953125 L 16.671875 -17.953125 L 6.171875 -17.953125 L 6.171875 -11.984375 L 15.71875 -11.984375 L 15.71875 -8.984375 L 6.171875 -8.984375 L 6.171875 -3.109375 L 16.671875 -3.109375 L 16.671875 0 Z M 2.828125 0 "/></g></g></g><g fill="#ffffff" fill-opacity="1"><g transform="translate(235.31584, 202.415682)"><g/></g></g><g fill="#ffffff" fill-opacity="1"><g transform="translate(242.834097, 202.415682)"><g><path d="M 8.640625 0 L 0.421875 -20.953125 L 4.046875 -20.953125 L 9.953125 -5.171875 L 15.828125 -20.953125 L 19.421875 -20.953125 L 11.234375 0 Z M 8.640625 0 "/></g></g></g><g fill="#ffffff" fill-opacity="1"><g transform="translate(262.660341, 202.415682)"><g><path d="M 2.828125 0 L 2.828125 -20.953125 L 6.171875 -20.953125 L 6.171875 0 Z M 2.828125 0 "/></g></g></g><g fill="#ffffff" fill-opacity="1"><g transform="translate(271.661488, 202.415682)"><g><path d="M 8.609375 0.234375 C 7.710938 0.234375 6.832031 0.113281 5.96875 -0.125 C 5.113281 -0.375 4.328125 -0.75 3.609375 -1.25 C 2.890625 -1.75 2.285156 -2.367188 1.796875 -3.109375 C 1.316406 -3.859375 1 -4.738281 0.84375 -5.75 L 4.09375 -6.59375 C 4.1875 -5.707031 4.445312 -4.976562 4.875 -4.40625 C 5.3125 -3.832031 5.859375 -3.40625 6.515625 -3.125 C 7.179688 -2.851562 7.894531 -2.71875 8.65625 -2.71875 C 9.820312 -2.71875 10.734375 -2.988281 11.390625 -3.53125 C 12.046875 -4.082031 12.375 -4.8125 12.375 -5.71875 C 12.375 -6.300781 12.226562 -6.800781 11.9375 -7.21875 C 11.65625 -7.632812 11.273438 -7.992188 10.796875 -8.296875 C 10.316406 -8.609375 9.773438 -8.890625 9.171875 -9.140625 C 8.566406 -9.398438 7.941406 -9.660156 7.296875 -9.921875 C 6.660156 -10.179688 6.039062 -10.46875 5.4375 -10.78125 C 4.832031 -11.101562 4.289062 -11.476562 3.8125 -11.90625 C 3.332031 -12.34375 2.945312 -12.863281 2.65625 -13.46875 C 2.375 -14.070312 2.234375 -14.789062 2.234375 -15.625 C 2.234375 -16.519531 2.398438 -17.316406 2.734375 -18.015625 C 3.066406 -18.710938 3.519531 -19.300781 4.09375 -19.78125 C 4.675781 -20.269531 5.34375 -20.640625 6.09375 -20.890625 C 6.851562 -21.140625 7.65625 -21.265625 8.5 -21.265625 C 9.769531 -21.265625 10.945312 -20.976562 12.03125 -20.40625 C 13.125 -19.84375 14.019531 -18.941406 14.71875 -17.703125 L 12 -16.03125 C 11.625 -16.78125 11.113281 -17.347656 10.46875 -17.734375 C 9.832031 -18.128906 9.144531 -18.328125 8.40625 -18.328125 C 7.882812 -18.328125 7.40625 -18.222656 6.96875 -18.015625 C 6.53125 -17.804688 6.179688 -17.515625 5.921875 -17.140625 C 5.671875 -16.765625 5.546875 -16.328125 5.546875 -15.828125 C 5.546875 -15.304688 5.6875 -14.851562 5.96875 -14.46875 C 6.257812 -14.09375 6.644531 -13.765625 7.125 -13.484375 C 7.601562 -13.203125 8.144531 -12.9375 8.75 -12.6875 C 9.351562 -12.445312 9.972656 -12.191406 10.609375 -11.921875 C 11.242188 -11.660156 11.863281 -11.363281 12.46875 -11.03125 C 13.070312 -10.707031 13.613281 -10.316406 14.09375 -9.859375 C 14.570312 -9.410156 14.953125 -8.867188 15.234375 -8.234375 C 15.523438 -7.609375 15.671875 -6.863281 15.671875 -6 C 15.671875 -5.03125 15.488281 -4.160156 15.125 -3.390625 C 14.757812 -2.617188 14.253906 -1.960938 13.609375 -1.421875 C 12.972656 -0.890625 12.222656 -0.476562 11.359375 -0.1875 C 10.503906 0.09375 9.585938 0.234375 8.609375 0.234375 Z M 8.609375 0.234375 "/></g></g></g><g fill="#ffffff" fill-opacity="1"><g transform="translate(288.388485, 202.415682)"><g><path d="M 7.203125 0 L 7.203125 -18.03125 L 0.484375 -18.03125 L 0.484375 -20.953125 L 17.265625 -20.953125 L 17.265625 -18.03125 L 10.546875 -18.03125 L 10.546875 0 Z M 7.203125 0 "/></g></g></g><g fill="#ffffff" fill-opacity="1"><g transform="translate(306.138683, 202.415682)"><g><path d="M 0.421875 0 L 8.640625 -20.953125 L 11.15625 -20.953125 L 19.34375 0 L 15.75 0 L 14.140625 -4.546875 L 5.671875 -4.546875 L 4.03125 0 Z M 6.796875 -7.453125 L 13.015625 -7.453125 L 9.90625 -16.078125 Z M 6.796875 -7.453125 "/></g></g></g></svg>