<svg xmlns="http://www.w3.org/2000/svg" xmlns:xlink="http://www.w3.org/1999/xlink" width="500" zoomAndPan="magnify" viewBox="0 0 375 374.999991" height="500" preserveAspectRatio="xMidYMid meet" version="1.0"><defs><g/><clipPath id="cda9c9bf7a"><path d="M 116 186 L 127.5 186 L 127.5 199 L 116 199 Z M 116 186 " clip-rule="nonzero"/></clipPath><clipPath id="56c5de536c"><path d="M 37.5 186 L 49 186 L 49 199 L 37.5 199 Z M 37.5 186 " clip-rule="nonzero"/></clipPath><clipPath id="322f6a0d9a"><path d="M 41 155.347656 L 124 155.347656 L 124 179 L 41 179 Z M 41 155.347656 " clip-rule="nonzero"/></clipPath><clipPath id="e023398479"><path d="M 41 206 L 124 206 L 124 219.847656 L 41 219.847656 Z M 41 206 " clip-rule="nonzero"/></clipPath></defs><path fill="#000000" d="M 100.714844 190.664062 C 100.714844 191.148438 100.714844 191.628906 100.65625 192.109375 L 89.988281 185.914062 L 83.9375 182.421875 L 94.066406 176.585938 C 98.140625 179.957031 100.714844 185.007812 100.714844 190.664062 Z M 100.714844 190.664062 " fill-opacity="1" fill-rule="nonzero"/><path fill="#000000" d="M 92.804688 175.625 L 82.140625 181.820312 L 76.089844 185.3125 L 76.089844 173.578125 C 78.066406 172.855469 80.222656 172.433594 82.5 172.433594 C 86.335938 172.433594 89.871094 173.636719 92.804688 175.625 Z M 92.804688 175.625 " fill-opacity="1" fill-rule="nonzero"/><path fill="#000000" d="M 74.652344 174.179688 L 74.652344 193.554688 L 64.523438 187.71875 C 65.542969 181.699219 69.378906 176.707031 74.652344 174.179688 Z M 74.652344 174.179688 " fill-opacity="1" fill-rule="nonzero"/><path fill="#000000" d="M 81.0625 198.910156 L 70.933594 204.746094 C 66.859375 201.375 64.285156 196.320312 64.285156 190.664062 C 64.285156 190.183594 64.285156 189.703125 64.34375 189.222656 L 75.011719 195.417969 Z M 81.0625 198.910156 " fill-opacity="1" fill-rule="nonzero"/><path fill="#000000" d="M 88.910156 196.082031 L 88.910156 207.8125 C 86.933594 208.535156 84.777344 208.957031 82.5 208.957031 C 78.664062 208.957031 75.128906 207.753906 72.195312 205.769531 L 82.5 199.8125 Z M 88.910156 196.082031 " fill-opacity="1" fill-rule="nonzero"/><path fill="#000000" d="M 100.476562 193.675781 C 99.515625 199.628906 95.621094 204.625 90.347656 207.152344 L 90.347656 187.777344 Z M 100.476562 193.675781 " fill-opacity="1" fill-rule="nonzero"/><path fill="#000000" d="M 71.117188 207.03125 L 71.234375 207.089844 C 74.53125 209.378906 78.425781 210.582031 82.5 210.582031 C 84.898438 210.582031 87.234375 210.160156 89.449219 209.316406 C 89.988281 209.136719 90.527344 208.894531 91.007812 208.65625 C 96.878906 205.828125 101.015625 200.351562 102.035156 193.914062 C 102.152344 193.375 102.214844 192.769531 102.214844 192.230469 C 102.273438 191.6875 102.273438 191.207031 102.273438 190.664062 C 102.273438 184.707031 99.636719 179.054688 95.023438 175.261719 C 94.605469 174.902344 94.125 174.539062 93.644531 174.238281 C 90.347656 171.953125 86.453125 170.75 82.378906 170.75 C 79.984375 170.75 77.648438 171.171875 75.429688 172.011719 C 74.890625 172.195312 74.351562 172.433594 73.871094 172.675781 C 68.121094 175.503906 63.984375 180.976562 62.90625 187.417969 C 62.785156 187.957031 62.726562 188.558594 62.726562 189.101562 C 62.667969 189.644531 62.667969 190.125 62.667969 190.664062 C 62.667969 196.621094 65.304688 202.277344 69.917969 206.070312 C 70.277344 206.429688 70.695312 206.730469 71.117188 207.03125 Z M 82.5 213.589844 C 77.945312 213.589844 73.632812 212.265625 69.855469 209.738281 L 69.558594 209.558594 C 69.019531 209.195312 68.480469 208.777344 68 208.355469 C 62.726562 203.960938 59.671875 197.523438 59.671875 190.664062 C 59.671875 190.0625 59.671875 189.460938 59.730469 188.859375 C 59.789062 188.199219 59.851562 187.535156 59.96875 186.875 C 61.167969 179.535156 65.902344 173.15625 72.671875 169.96875 C 73.273438 169.667969 73.871094 169.425781 74.472656 169.1875 C 77.046875 168.222656 79.742188 167.742188 82.5 167.742188 C 87.171875 167.742188 91.609375 169.125 95.441406 171.773438 C 95.980469 172.132812 96.519531 172.554688 97 172.976562 C 102.273438 177.367188 105.328125 183.804688 105.328125 190.664062 C 105.328125 191.265625 105.328125 191.867188 105.269531 192.46875 C 105.210938 193.132812 105.148438 193.792969 105.03125 194.457031 C 103.832031 201.796875 99.097656 208.113281 92.328125 211.363281 C 91.726562 211.664062 91.128906 211.90625 90.527344 212.144531 C 87.953125 213.109375 85.257812 213.589844 82.5 213.589844 Z M 82.5 213.589844 " fill-opacity="1" fill-rule="nonzero"/><g clip-path="url(#cda9c9bf7a)"><path fill="#000000" d="M 121.925781 186.933594 L 123.125 191.265625 L 127.441406 192.46875 L 123.125 193.675781 L 121.925781 198.007812 L 120.730469 193.675781 L 116.414062 192.46875 L 120.730469 191.265625 Z M 121.925781 186.933594 " fill-opacity="1" fill-rule="nonzero"/></g><g clip-path="url(#56c5de536c)"><path fill="#000000" d="M 43.074219 186.933594 L 44.269531 191.265625 L 48.585938 192.46875 L 44.269531 193.675781 L 43.074219 198.007812 L 41.875 193.675781 L 37.558594 192.46875 L 41.875 191.265625 Z M 43.074219 186.933594 " fill-opacity="1" fill-rule="nonzero"/></g><g clip-path="url(#322f6a0d9a)"><path fill="#000000" d="M 44.75 176.765625 L 44.75 175.261719 C 44.75 171.53125 47.746094 168.523438 51.460938 168.523438 L 62.847656 168.523438 C 65.183594 168.523438 67.339844 167.199219 68.480469 165.09375 L 70.753906 160.703125 C 71.414062 159.5 72.613281 158.714844 73.992188 158.714844 L 91.070312 158.714844 C 92.445312 158.714844 93.703125 159.5 94.304688 160.703125 L 96.582031 165.09375 C 97.660156 167.199219 99.816406 168.523438 102.214844 168.523438 L 113.597656 168.523438 C 117.3125 168.523438 120.308594 171.53125 120.308594 175.261719 L 120.308594 176.765625 C 120.308594 177.730469 121.089844 178.511719 122.046875 178.511719 C 123.003906 178.511719 123.785156 177.730469 123.785156 176.765625 L 123.785156 175.261719 C 123.785156 169.667969 119.230469 165.09375 113.660156 165.09375 L 102.273438 165.09375 C 101.195312 165.09375 100.175781 164.492188 99.695312 163.53125 L 97.421875 159.136719 C 96.160156 156.789062 93.765625 155.347656 91.128906 155.347656 L 73.992188 155.347656 C 71.355469 155.347656 68.957031 156.789062 67.699219 159.136719 L 65.421875 163.53125 C 64.945312 164.492188 63.925781 165.09375 62.847656 165.09375 L 51.460938 165.09375 C 45.890625 165.09375 41.335938 169.667969 41.335938 175.261719 L 41.335938 176.765625 C 41.335938 177.730469 42.113281 178.511719 43.074219 178.511719 C 43.972656 178.453125 44.75 177.730469 44.75 176.765625 Z M 44.75 176.765625 " fill-opacity="1" fill-rule="nonzero"/></g><g clip-path="url(#e023398479)"><path fill="#000000" d="M 120.25 208.175781 L 120.25 209.679688 C 120.25 213.410156 117.253906 216.417969 113.539062 216.417969 L 51.402344 216.417969 C 47.6875 216.417969 44.691406 213.410156 44.691406 209.679688 L 44.691406 208.175781 C 44.691406 207.210938 43.910156 206.429688 42.953125 206.429688 C 41.996094 206.429688 41.214844 207.210938 41.214844 208.175781 L 41.214844 209.679688 C 41.214844 215.273438 45.769531 219.847656 51.339844 219.847656 L 113.476562 219.847656 C 119.050781 219.847656 123.605469 215.273438 123.605469 209.679688 L 123.605469 208.175781 C 123.605469 207.210938 122.824219 206.429688 121.867188 206.429688 C 121.027344 206.488281 120.25 207.273438 120.25 208.175781 Z M 120.25 208.175781 " fill-opacity="1" fill-rule="nonzero"/></g><g fill="#000000" fill-opacity="1"><g transform="translate(139.002126, 202.415668)"><g><path d="M 2.828125 0 L 2.828125 -20.953125 L 6.171875 -20.953125 L 6.171875 0 Z M 2.828125 0 "/></g></g></g><g fill="#000000" fill-opacity="1"><g transform="translate(148.003274, 202.415668)"><g><path d="M 2.828125 0 L 2.828125 -20.953125 L 7.515625 -20.953125 L 13.234375 -5.4375 L 18.96875 -20.953125 L 23.65625 -20.953125 L 23.65625 0 L 20.453125 0 L 20.453125 -16.6875 L 14.90625 -1.828125 L 11.59375 -1.828125 L 6.0625 -16.6875 L 6.0625 0 Z M 2.828125 0 "/></g></g></g><g fill="#000000" fill-opacity="1"><g transform="translate(174.502522, 202.415668)"><g><path d="M 0.421875 0 L 8.640625 -20.953125 L 11.15625 -20.953125 L 19.34375 0 L 15.75 0 L 14.140625 -4.546875 L 5.671875 -4.546875 L 4.03125 0 Z M 6.796875 -7.453125 L 13.015625 -7.453125 L 9.90625 -16.078125 Z M 6.796875 -7.453125 "/></g></g></g><g fill="#000000" fill-opacity="1"><g transform="translate(194.254614, 202.415668)"><g><path d="M 11.328125 0.296875 C 9.972656 0.296875 8.757812 0.113281 7.6875 -0.25 C 6.625 -0.625 5.695312 -1.144531 4.90625 -1.8125 C 4.125 -2.488281 3.472656 -3.28125 2.953125 -4.1875 C 2.441406 -5.09375 2.054688 -6.078125 1.796875 -7.140625 C 1.535156 -8.210938 1.40625 -9.328125 1.40625 -10.484375 C 1.40625 -11.640625 1.53125 -12.75 1.78125 -13.8125 C 2.039062 -14.882812 2.425781 -15.875 2.9375 -16.78125 C 3.457031 -17.6875 4.109375 -18.476562 4.890625 -19.15625 C 5.679688 -19.832031 6.609375 -20.359375 7.671875 -20.734375 C 8.742188 -21.109375 9.953125 -21.296875 11.296875 -21.296875 C 13.335938 -21.296875 15.128906 -20.789062 16.671875 -19.78125 C 18.210938 -18.78125 19.40625 -17.320312 20.25 -15.40625 L 17.28125 -14.171875 C 16.75 -15.578125 15.957031 -16.625 14.90625 -17.3125 C 13.863281 -18 12.648438 -18.34375 11.265625 -18.34375 C 10.117188 -18.34375 9.128906 -18.132812 8.296875 -17.71875 C 7.472656 -17.300781 6.789062 -16.734375 6.25 -16.015625 C 5.71875 -15.296875 5.328125 -14.472656 5.078125 -13.546875 C 4.828125 -12.617188 4.703125 -11.648438 4.703125 -10.640625 C 4.703125 -9.554688 4.828125 -8.535156 5.078125 -7.578125 C 5.335938 -6.617188 5.734375 -5.769531 6.265625 -5.03125 C 6.804688 -4.300781 7.492188 -3.726562 8.328125 -3.3125 C 9.160156 -2.90625 10.160156 -2.703125 11.328125 -2.703125 C 12.390625 -2.703125 13.363281 -2.929688 14.25 -3.390625 C 15.132812 -3.847656 15.859375 -4.503906 16.421875 -5.359375 C 16.992188 -6.222656 17.328125 -7.25 17.421875 -8.4375 L 12.65625 -8.4375 L 12.65625 -11.109375 L 20.625 -11.109375 L 20.625 0 L 17.96875 0 L 17.734375 -3.21875 C 17.390625 -2.539062 16.90625 -1.9375 16.28125 -1.40625 C 15.65625 -0.875 14.925781 -0.457031 14.09375 -0.15625 C 13.257812 0.144531 12.335938 0.296875 11.328125 0.296875 Z M 11.328125 0.296875 "/></g></g></g><g fill="#000000" fill-opacity="1"><g transform="translate(216.883512, 202.415668)"><g><path d="M 2.828125 0 L 2.828125 -20.953125 L 16.671875 -20.953125 L 16.671875 -17.953125 L 6.171875 -17.953125 L 6.171875 -11.984375 L 15.71875 -11.984375 L 15.71875 -8.984375 L 6.171875 -8.984375 L 6.171875 -3.109375 L 16.671875 -3.109375 L 16.671875 0 Z M 2.828125 0 "/></g></g></g><g fill="#000000" fill-opacity="1"><g transform="translate(235.31584, 202.415668)"><g/></g></g><g fill="#000000" fill-opacity="1"><g transform="translate(242.834097, 202.415668)"><g><path d="M 8.640625 0 L 0.421875 -20.953125 L 4.046875 -20.953125 L 9.953125 -5.171875 L 15.828125 -20.953125 L 19.421875 -20.953125 L 11.234375 0 Z M 8.640625 0 "/></g></g></g><g fill="#000000" fill-opacity="1"><g transform="translate(262.660341, 202.415668)"><g><path d="M 2.828125 0 L 2.828125 -20.953125 L 6.171875 -20.953125 L 6.171875 0 Z M 2.828125 0 "/></g></g></g><g fill="#000000" fill-opacity="1"><g transform="translate(271.661488, 202.415668)"><g><path d="M 8.609375 0.234375 C 7.710938 0.234375 6.832031 0.113281 5.96875 -0.125 C 5.113281 -0.375 4.328125 -0.75 3.609375 -1.25 C 2.890625 -1.75 2.285156 -2.367188 1.796875 -3.109375 C 1.316406 -3.859375 1 -4.738281 0.84375 -5.75 L 4.09375 -6.59375 C 4.1875 -5.707031 4.445312 -4.976562 4.875 -4.40625 C 5.3125 -3.832031 5.859375 -3.40625 6.515625 -3.125 C 7.179688 -2.851562 7.894531 -2.71875 8.65625 -2.71875 C 9.820312 -2.71875 10.734375 -2.988281 11.390625 -3.53125 C 12.046875 -4.082031 12.375 -4.8125 12.375 -5.71875 C 12.375 -6.300781 12.226562 -6.800781 11.9375 -7.21875 C 11.65625 -7.632812 11.273438 -7.992188 10.796875 -8.296875 C 10.316406 -8.609375 9.773438 -8.890625 9.171875 -9.140625 C 8.566406 -9.398438 7.941406 -9.660156 7.296875 -9.921875 C 6.660156 -10.179688 6.039062 -10.46875 5.4375 -10.78125 C 4.832031 -11.101562 4.289062 -11.476562 3.8125 -11.90625 C 3.332031 -12.34375 2.945312 -12.863281 2.65625 -13.46875 C 2.375 -14.070312 2.234375 -14.789062 2.234375 -15.625 C 2.234375 -16.519531 2.398438 -17.316406 2.734375 -18.015625 C 3.066406 -18.710938 3.519531 -19.300781 4.09375 -19.78125 C 4.675781 -20.269531 5.34375 -20.640625 6.09375 -20.890625 C 6.851562 -21.140625 7.65625 -21.265625 8.5 -21.265625 C 9.769531 -21.265625 10.945312 -20.976562 12.03125 -20.40625 C 13.125 -19.84375 14.019531 -18.941406 14.71875 -17.703125 L 12 -16.03125 C 11.625 -16.78125 11.113281 -17.347656 10.46875 -17.734375 C 9.832031 -18.128906 9.144531 -18.328125 8.40625 -18.328125 C 7.882812 -18.328125 7.40625 -18.222656 6.96875 -18.015625 C 6.53125 -17.804688 6.179688 -17.515625 5.921875 -17.140625 C 5.671875 -16.765625 5.546875 -16.328125 5.546875 -15.828125 C 5.546875 -15.304688 5.6875 -14.851562 5.96875 -14.46875 C 6.257812 -14.09375 6.644531 -13.765625 7.125 -13.484375 C 7.601562 -13.203125 8.144531 -12.9375 8.75 -12.6875 C 9.351562 -12.445312 9.972656 -12.191406 10.609375 -11.921875 C 11.242188 -11.660156 11.863281 -11.363281 12.46875 -11.03125 C 13.070312 -10.707031 13.613281 -10.316406 14.09375 -9.859375 C 14.570312 -9.410156 14.953125 -8.867188 15.234375 -8.234375 C 15.523438 -7.609375 15.671875 -6.863281 15.671875 -6 C 15.671875 -5.03125 15.488281 -4.160156 15.125 -3.390625 C 14.757812 -2.617188 14.253906 -1.960938 13.609375 -1.421875 C 12.972656 -0.890625 12.222656 -0.476562 11.359375 -0.1875 C 10.503906 0.09375 9.585938 0.234375 8.609375 0.234375 Z M 8.609375 0.234375 "/></g></g></g><g fill="#000000" fill-opacity="1"><g transform="translate(288.388485, 202.415668)"><g><path d="M 7.203125 0 L 7.203125 -18.03125 L 0.484375 -18.03125 L 0.484375 -20.953125 L 17.265625 -20.953125 L 17.265625 -18.03125 L 10.546875 -18.03125 L 10.546875 0 Z M 7.203125 0 "/></g></g></g><g fill="#000000" fill-opacity="1"><g transform="translate(306.138683, 202.415668)"><g><path d="M 0.421875 0 L 8.640625 -20.953125 L 11.15625 -20.953125 L 19.34375 0 L 15.75 0 L 14.140625 -4.546875 L 5.671875 -4.546875 L 4.03125 0 Z M 6.796875 -7.453125 L 13.015625 -7.453125 L 9.90625 -16.078125 Z M 6.796875 -7.453125 "/></g></g></g></svg>