<svg xmlns="http://www.w3.org/2000/svg" xmlns:xlink="http://www.w3.org/1999/xlink" width="160" zoomAndPan="magnify" viewBox="0 0 120 30.000001" height="40" preserveAspectRatio="xMidYMid meet" version="1.0"><defs><g/><clipPath id="072e59da75"><path d="M 30 14 L 33.570312 14 L 33.570312 18 L 30 18 Z M 30 14 " clip-rule="nonzero"/></clipPath><clipPath id="04247bf939"><path d="M 4.839844 14 L 9 14 L 9 18 L 4.839844 18 Z M 4.839844 14 " clip-rule="nonzero"/></clipPath><clipPath id="357ca35740"><path d="M 6 4.25 L 33 4.25 L 33 12 L 6 12 Z M 6 4.25 " clip-rule="nonzero"/></clipPath><clipPath id="1e82f7b61c"><path d="M 6 20 L 33 20 L 33 24.84375 L 6 24.84375 Z M 6 20 " clip-rule="nonzero"/></clipPath></defs><path fill="#ffffff" d="M 25.042969 15.492188 C 25.042969 15.644531 25.042969 15.796875 25.023438 15.953125 L 21.613281 13.980469 L 19.679688 12.867188 L 22.914062 11.011719 C 24.21875 12.082031 25.042969 13.691406 25.042969 15.492188 Z M 25.042969 15.492188 " fill-opacity="1" fill-rule="nonzero"/><path fill="#ffffff" d="M 22.515625 10.703125 L 19.105469 12.675781 L 17.171875 13.789062 L 17.171875 10.054688 C 17.804688 9.824219 18.492188 9.691406 19.21875 9.691406 C 20.445312 9.691406 21.574219 10.074219 22.515625 10.703125 Z M 22.515625 10.703125 " fill-opacity="1" fill-rule="nonzero"/><path fill="#ffffff" d="M 16.710938 10.246094 L 16.710938 16.410156 L 13.476562 14.554688 C 13.800781 12.636719 15.027344 11.050781 16.710938 10.246094 Z M 16.710938 10.246094 " fill-opacity="1" fill-rule="nonzero"/><path fill="#ffffff" d="M 18.761719 18.117188 L 15.523438 19.972656 C 14.222656 18.902344 13.398438 17.292969 13.398438 15.492188 C 13.398438 15.339844 13.398438 15.183594 13.417969 15.03125 L 16.828125 17.003906 Z M 18.761719 18.117188 " fill-opacity="1" fill-rule="nonzero"/><path fill="#ffffff" d="M 21.269531 17.214844 L 21.269531 20.949219 C 20.636719 21.179688 19.949219 21.3125 19.21875 21.3125 C 17.996094 21.3125 16.863281 20.929688 15.925781 20.296875 L 19.21875 18.402344 Z M 21.269531 17.214844 " fill-opacity="1" fill-rule="nonzero"/><path fill="#ffffff" d="M 24.964844 16.449219 C 24.660156 18.34375 23.414062 19.933594 21.730469 20.738281 L 21.730469 14.574219 Z M 24.964844 16.449219 " fill-opacity="1" fill-rule="nonzero"/><path fill="#ffffff" d="M 15.582031 20.699219 L 15.621094 20.71875 C 16.671875 21.449219 17.917969 21.832031 19.21875 21.832031 C 19.984375 21.832031 20.734375 21.695312 21.441406 21.429688 C 21.613281 21.371094 21.785156 21.292969 21.9375 21.21875 C 23.816406 20.316406 25.136719 18.574219 25.460938 16.527344 C 25.5 16.355469 25.519531 16.164062 25.519531 15.988281 C 25.539062 15.816406 25.539062 15.664062 25.539062 15.492188 C 25.539062 13.597656 24.695312 11.796875 23.222656 10.589844 C 23.089844 10.476562 22.933594 10.359375 22.78125 10.265625 C 21.730469 9.535156 20.484375 9.152344 19.183594 9.152344 C 18.414062 9.152344 17.667969 9.289062 16.960938 9.554688 C 16.789062 9.613281 16.617188 9.691406 16.460938 9.765625 C 14.625 10.667969 13.304688 12.410156 12.957031 14.457031 C 12.917969 14.628906 12.902344 14.820312 12.902344 14.992188 C 12.882812 15.167969 12.882812 15.320312 12.882812 15.492188 C 12.882812 17.386719 13.722656 19.1875 15.199219 20.394531 C 15.3125 20.507812 15.449219 20.605469 15.582031 20.699219 Z M 19.21875 22.789062 C 17.765625 22.789062 16.386719 22.367188 15.179688 21.5625 L 15.082031 21.503906 C 14.910156 21.390625 14.738281 21.257812 14.585938 21.121094 C 12.902344 19.722656 11.925781 17.675781 11.925781 15.492188 C 11.925781 15.300781 11.925781 15.109375 11.941406 14.917969 C 11.960938 14.707031 11.980469 14.496094 12.019531 14.285156 C 12.402344 11.949219 13.914062 9.917969 16.078125 8.90625 C 16.269531 8.808594 16.460938 8.730469 16.652344 8.65625 C 17.476562 8.347656 18.339844 8.195312 19.21875 8.195312 C 20.714844 8.195312 22.128906 8.636719 23.355469 9.480469 C 23.527344 9.59375 23.699219 9.726562 23.855469 9.863281 C 25.539062 11.261719 26.515625 13.308594 26.515625 15.492188 C 26.515625 15.683594 26.515625 15.875 26.496094 16.066406 C 26.476562 16.277344 26.457031 16.488281 26.421875 16.699219 C 26.039062 19.035156 24.523438 21.046875 22.359375 22.078125 C 22.167969 22.175781 21.976562 22.25 21.785156 22.328125 C 20.960938 22.632812 20.101562 22.789062 19.21875 22.789062 Z M 19.21875 22.789062 " fill-opacity="1" fill-rule="nonzero"/><g clip-path="url(#072e59da75)"><path fill="#ffffff" d="M 31.820312 14.304688 L 32.203125 15.683594 L 33.582031 16.066406 L 32.203125 16.449219 L 31.820312 17.828125 L 31.4375 16.449219 L 30.058594 16.066406 L 31.4375 15.683594 Z M 31.820312 14.304688 " fill-opacity="1" fill-rule="nonzero"/></g><g clip-path="url(#04247bf939)"><path fill="#ffffff" d="M 6.621094 14.304688 L 7.003906 15.683594 L 8.382812 16.066406 L 7.003906 16.449219 L 6.621094 17.828125 L 6.238281 16.449219 L 4.859375 16.066406 L 6.238281 15.683594 Z M 6.621094 14.304688 " fill-opacity="1" fill-rule="nonzero"/></g><g clip-path="url(#357ca35740)"><path fill="#ffffff" d="M 7.15625 11.070312 L 7.15625 10.589844 C 7.15625 9.402344 8.113281 8.445312 9.300781 8.445312 L 12.9375 8.445312 C 13.6875 8.445312 14.375 8.023438 14.738281 7.351562 L 15.464844 5.957031 C 15.675781 5.574219 16.058594 5.324219 16.5 5.324219 L 21.957031 5.324219 C 22.398438 5.324219 22.800781 5.574219 22.992188 5.957031 L 23.71875 7.351562 C 24.066406 8.023438 24.753906 8.445312 25.519531 8.445312 L 29.160156 8.445312 C 30.347656 8.445312 31.304688 9.402344 31.304688 10.589844 L 31.304688 11.070312 C 31.304688 11.375 31.550781 11.625 31.859375 11.625 C 32.164062 11.625 32.414062 11.375 32.414062 11.070312 L 32.414062 10.589844 C 32.414062 8.808594 30.957031 7.351562 29.179688 7.351562 L 25.539062 7.351562 C 25.195312 7.351562 24.871094 7.160156 24.714844 6.855469 L 23.988281 5.457031 C 23.585938 4.710938 22.820312 4.25 21.976562 4.25 L 16.5 4.25 C 15.660156 4.25 14.890625 4.710938 14.488281 5.457031 L 13.761719 6.855469 C 13.609375 7.160156 13.285156 7.351562 12.9375 7.351562 L 9.300781 7.351562 C 7.519531 7.351562 6.0625 8.808594 6.0625 10.589844 L 6.0625 11.070312 C 6.0625 11.375 6.3125 11.625 6.621094 11.625 C 6.90625 11.605469 7.15625 11.375 7.15625 11.070312 Z M 7.15625 11.070312 " fill-opacity="1" fill-rule="nonzero"/></g><g clip-path="url(#1e82f7b61c)"><path fill="#ffffff" d="M 31.285156 21.0625 L 31.285156 21.542969 C 31.285156 22.730469 30.328125 23.6875 29.140625 23.6875 L 9.28125 23.6875 C 8.09375 23.6875 7.136719 22.730469 7.136719 21.542969 L 7.136719 21.0625 C 7.136719 20.757812 6.886719 20.507812 6.582031 20.507812 C 6.273438 20.507812 6.027344 20.757812 6.027344 21.0625 L 6.027344 21.542969 C 6.027344 23.324219 7.480469 24.78125 9.261719 24.78125 L 29.121094 24.78125 C 30.902344 24.78125 32.355469 23.324219 32.355469 21.542969 L 32.355469 21.0625 C 32.355469 20.757812 32.109375 20.507812 31.800781 20.507812 C 31.535156 20.527344 31.285156 20.777344 31.285156 21.0625 Z M 31.285156 21.0625 " fill-opacity="1" fill-rule="nonzero"/></g><g fill="#ffffff" fill-opacity="1"><g transform="translate(37.243657, 19.278023)"><g><path d="M 0.90625 0 L 0.90625 -6.6875 L 1.96875 -6.6875 L 1.96875 0 Z M 0.90625 0 "/></g></g></g><g fill="#ffffff" fill-opacity="1"><g transform="translate(40.117309, 19.278023)"><g><path d="M 0.90625 0 L 0.90625 -6.6875 L 2.40625 -6.6875 L 4.21875 -1.734375 L 6.0625 -6.6875 L 7.5625 -6.6875 L 7.5625 0 L 6.53125 0 L 6.53125 -5.328125 L 4.765625 -0.578125 L 3.703125 -0.578125 L 1.9375 -5.328125 L 1.9375 0 Z M 0.90625 0 "/></g></g></g><g fill="#ffffff" fill-opacity="1"><g transform="translate(48.577297, 19.278023)"><g><path d="M 0.125 0 L 2.765625 -6.6875 L 3.5625 -6.6875 L 6.171875 0 L 5.03125 0 L 4.515625 -1.453125 L 1.8125 -1.453125 L 1.28125 0 Z M 2.171875 -2.375 L 4.15625 -2.375 L 3.171875 -5.140625 Z M 2.171875 -2.375 "/></g></g></g><g fill="#ffffff" fill-opacity="1"><g transform="translate(54.883229, 19.278023)"><g><path d="M 3.625 0.09375 C 3.1875 0.09375 2.796875 0.0351562 2.453125 -0.078125 C 2.117188 -0.203125 1.820312 -0.367188 1.5625 -0.578125 C 1.3125 -0.796875 1.101562 -1.046875 0.9375 -1.328125 C 0.78125 -1.617188 0.660156 -1.9375 0.578125 -2.28125 C 0.492188 -2.625 0.453125 -2.976562 0.453125 -3.34375 C 0.453125 -3.71875 0.488281 -4.070312 0.5625 -4.40625 C 0.644531 -4.75 0.769531 -5.066406 0.9375 -5.359375 C 1.101562 -5.648438 1.3125 -5.898438 1.5625 -6.109375 C 1.8125 -6.328125 2.109375 -6.492188 2.453125 -6.609375 C 2.796875 -6.734375 3.179688 -6.796875 3.609375 -6.796875 C 4.265625 -6.796875 4.835938 -6.632812 5.328125 -6.3125 C 5.816406 -6 6.195312 -5.535156 6.46875 -4.921875 L 5.515625 -4.53125 C 5.347656 -4.976562 5.097656 -5.3125 4.765625 -5.53125 C 4.429688 -5.75 4.039062 -5.859375 3.59375 -5.859375 C 3.226562 -5.859375 2.910156 -5.789062 2.640625 -5.65625 C 2.378906 -5.53125 2.164062 -5.347656 2 -5.109375 C 1.832031 -4.878906 1.707031 -4.617188 1.625 -4.328125 C 1.539062 -4.035156 1.5 -3.722656 1.5 -3.390625 C 1.5 -3.046875 1.539062 -2.722656 1.625 -2.421875 C 1.707031 -2.117188 1.832031 -1.847656 2 -1.609375 C 2.175781 -1.378906 2.394531 -1.195312 2.65625 -1.0625 C 2.925781 -0.925781 3.25 -0.859375 3.625 -0.859375 C 3.957031 -0.859375 4.265625 -0.929688 4.546875 -1.078125 C 4.828125 -1.222656 5.054688 -1.429688 5.234375 -1.703125 C 5.421875 -1.984375 5.53125 -2.316406 5.5625 -2.703125 L 4.046875 -2.703125 L 4.046875 -3.546875 L 6.59375 -3.546875 L 6.59375 0 L 5.734375 0 L 5.671875 -1.03125 C 5.554688 -0.8125 5.398438 -0.613281 5.203125 -0.4375 C 5.003906 -0.269531 4.769531 -0.140625 4.5 -0.046875 C 4.238281 0.046875 3.945312 0.09375 3.625 0.09375 Z M 3.625 0.09375 "/></g></g></g><g fill="#ffffff" fill-opacity="1"><g transform="translate(62.107593, 19.278023)"><g><path d="M 0.90625 0 L 0.90625 -6.6875 L 5.328125 -6.6875 L 5.328125 -5.734375 L 1.96875 -5.734375 L 1.96875 -3.828125 L 5.015625 -3.828125 L 5.015625 -2.875 L 1.96875 -2.875 L 1.96875 -1 L 5.328125 -1 L 5.328125 0 Z M 0.90625 0 "/></g></g></g><g fill="#ffffff" fill-opacity="1"><g transform="translate(67.992186, 19.278023)"><g/></g></g><g fill="#ffffff" fill-opacity="1"><g transform="translate(70.392419, 19.278023)"><g><path d="M 2.765625 0 L 0.125 -6.6875 L 1.296875 -6.6875 L 3.171875 -1.65625 L 5.0625 -6.6875 L 6.203125 -6.6875 L 3.59375 0 Z M 2.765625 0 "/></g></g></g><g fill="#ffffff" fill-opacity="1"><g transform="translate(76.722024, 19.278023)"><g><path d="M 0.90625 0 L 0.90625 -6.6875 L 1.96875 -6.6875 L 1.96875 0 Z M 0.90625 0 "/></g></g></g><g fill="#ffffff" fill-opacity="1"><g transform="translate(79.595676, 19.278023)"><g><path d="M 2.75 0.078125 C 2.46875 0.078125 2.1875 0.0390625 1.90625 -0.03125 C 1.632812 -0.113281 1.382812 -0.234375 1.15625 -0.390625 C 0.925781 -0.554688 0.734375 -0.757812 0.578125 -1 C 0.421875 -1.238281 0.316406 -1.519531 0.265625 -1.84375 L 1.3125 -2.109375 C 1.34375 -1.828125 1.425781 -1.59375 1.5625 -1.40625 C 1.695312 -1.21875 1.867188 -1.078125 2.078125 -0.984375 C 2.296875 -0.898438 2.523438 -0.859375 2.765625 -0.859375 C 3.140625 -0.859375 3.429688 -0.945312 3.640625 -1.125 C 3.847656 -1.300781 3.953125 -1.535156 3.953125 -1.828125 C 3.953125 -2.015625 3.90625 -2.171875 3.8125 -2.296875 C 3.71875 -2.429688 3.59375 -2.546875 3.4375 -2.640625 C 3.289062 -2.742188 3.117188 -2.835938 2.921875 -2.921875 C 2.734375 -3.003906 2.535156 -3.085938 2.328125 -3.171875 C 2.128906 -3.253906 1.929688 -3.34375 1.734375 -3.4375 C 1.546875 -3.539062 1.375 -3.660156 1.21875 -3.796875 C 1.0625 -3.941406 0.9375 -4.109375 0.84375 -4.296875 C 0.757812 -4.492188 0.71875 -4.726562 0.71875 -5 C 0.71875 -5.28125 0.769531 -5.53125 0.875 -5.75 C 0.976562 -5.976562 1.125 -6.164062 1.3125 -6.3125 C 1.5 -6.46875 1.710938 -6.585938 1.953125 -6.671875 C 2.191406 -6.753906 2.445312 -6.796875 2.71875 -6.796875 C 3.125 -6.796875 3.5 -6.703125 3.84375 -6.515625 C 4.195312 -6.335938 4.484375 -6.050781 4.703125 -5.65625 L 3.828125 -5.125 C 3.710938 -5.363281 3.550781 -5.546875 3.34375 -5.671875 C 3.144531 -5.796875 2.925781 -5.859375 2.6875 -5.859375 C 2.519531 -5.859375 2.363281 -5.820312 2.21875 -5.75 C 2.082031 -5.6875 1.972656 -5.59375 1.890625 -5.46875 C 1.804688 -5.351562 1.765625 -5.21875 1.765625 -5.0625 C 1.765625 -4.882812 1.8125 -4.734375 1.90625 -4.609375 C 2 -4.492188 2.117188 -4.390625 2.265625 -4.296875 C 2.421875 -4.210938 2.59375 -4.128906 2.78125 -4.046875 C 2.976562 -3.972656 3.179688 -3.894531 3.390625 -3.8125 C 3.597656 -3.726562 3.796875 -3.632812 3.984375 -3.53125 C 4.179688 -3.425781 4.351562 -3.300781 4.5 -3.15625 C 4.65625 -3.007812 4.78125 -2.832031 4.875 -2.625 C 4.96875 -2.425781 5.015625 -2.191406 5.015625 -1.921875 C 5.015625 -1.609375 4.953125 -1.328125 4.828125 -1.078125 C 4.710938 -0.835938 4.550781 -0.628906 4.34375 -0.453125 C 4.144531 -0.285156 3.90625 -0.15625 3.625 -0.0625 C 3.351562 0.03125 3.0625 0.078125 2.75 0.078125 Z M 2.75 0.078125 "/></g></g></g><g fill="#ffffff" fill-opacity="1"><g transform="translate(84.935835, 19.278023)"><g><path d="M 2.296875 0 L 2.296875 -5.765625 L 0.15625 -5.765625 L 0.15625 -6.6875 L 5.515625 -6.6875 L 5.515625 -5.765625 L 3.375 -5.765625 L 3.375 0 Z M 2.296875 0 "/></g></g></g><g fill="#ffffff" fill-opacity="1"><g transform="translate(90.602655, 19.278023)"><g><path d="M 0.125 0 L 2.765625 -6.6875 L 3.5625 -6.6875 L 6.171875 0 L 5.03125 0 L 4.515625 -1.453125 L 1.8125 -1.453125 L 1.28125 0 Z M 2.171875 -2.375 L 4.15625 -2.375 L 3.171875 -5.140625 Z M 2.171875 -2.375 "/></g></g></g></svg>